<svg xmlns="http://www.w3.org/2000/svg" width="50" height="50" viewBox="0 0 50 50">
  <g id="Message_Button" data-name="Message Button" transform="translate(-0.477 -0.252)">
    <path id="Bg" d="M25,0A25,25,0,1,1,0,25,25,25,0,0,1,25,0Z" transform="translate(0.477 0.252)" fill="rgba(3,105,58,0.24)"/>
    <g id="Message_Icon" data-name="Message Icon" transform="translate(13 13)">
      <rect id="bound" width="24" height="24" transform="translate(0.477 0.252)" fill="none"/>
      <path id="Combined_Shape" data-name="Combined Shape" d="M9.922,18.573a1,1,0,0,1-.832-.448L7.017,15H3a3,3,0,0,1-3-3V3A3,3,0,0,1,3,0H17a3,3,0,0,1,3,3v9a3,3,0,0,1-3,3H12.487L10.8,18.057A.989.989,0,0,1,9.922,18.573ZM4,8a1,1,0,1,0,0,2H9A1,1,0,0,0,9,8ZM4,4A1,1,0,0,0,4,6h9a1,1,0,1,0,0-2Z" transform="translate(2.081 3.555)" fill="#03693a"/>
    </g>
  </g>
</svg>
