<svg xmlns="http://www.w3.org/2000/svg" width="12" height="18" viewBox="0 0 12 18">
  <g id="Location" transform="translate(1)">
    <path id="Icon" d="M5.393,15.795c-.145-.111-.339-.272-.547-.454l-.3-.269a18.662,18.662,0,0,1-1.815-1.9A10.264,10.264,0,0,1,0,6.727,7.132,7.132,0,0,1,1.745,1.981,5.653,5.653,0,0,1,6,0a5.649,5.649,0,0,1,4.254,1.981A7.129,7.129,0,0,1,12,6.727a10.268,10.268,0,0,1-2.729,6.444,18.649,18.649,0,0,1-1.816,1.9c-.3.273-.527.465-.667.58l-.181.143a1,1,0,0,1-1.214,0ZM2,6.727A8.37,8.37,0,0,0,4.271,11.9a16.992,16.992,0,0,0,1.622,1.7l.107.1.108-.1a17.2,17.2,0,0,0,1.309-1.331l.313-.367A8.37,8.37,0,0,0,10,6.727C10,4.12,8.206,2,6,2S2,4.12,2,6.727Zm1.334,0A2.8,2.8,0,0,1,6,3.818,2.8,2.8,0,0,1,8.667,6.727,2.8,2.8,0,0,1,6,9.636,2.8,2.8,0,0,1,3.334,6.727Zm2,0c0,.544.345.909.667.909s.667-.364.667-.909S6.323,5.818,6,5.818,5.334,6.183,5.334,6.727Z" transform="translate(-1 2)" fill="#bdbed6"/>
    <text id="Arkansas_USA" data-name="Arkansas, USA" transform="translate(2 1)" fill="#b5b6cc" font-size="1" font-family="Poppins-Medium, Poppins" font-weight="500" letter-spacing="0.071em"><tspan x="0" y="0">Houston, USA</tspan></text>
  </g>
</svg>
