<svg xmlns="http://www.w3.org/2000/svg" width="18.497" height="21.489" viewBox="0 0 18.497 21.489">
  <path id="Path_164" data-name="Path 164" d="M331.324,87.1a2.523,2.523,0,0,0,1.873.894h0a2.532,2.532,0,0,0,1.88-.895.75.75,0,0,1,1.115,1,4.017,4.017,0,0,1-2.995,1.39h0a4,4,0,0,1-2.987-1.391.749.749,0,0,1,1.115-1ZM333.247,68c4.445,0,7.431,3.46,7.431,6.691a5.111,5.111,0,0,0,.872,3.114,5.425,5.425,0,0,1,.947,3.158c-.349,4.045-4.574,4.375-9.25,4.375s-8.9-.33-9.247-4.311a5.472,5.472,0,0,1,.944-3.222l.157-.264a5.011,5.011,0,0,0,.715-2.851C325.816,71.46,328.8,68,333.247,68Zm0,1.5c-3.495,0-5.931,2.737-5.931,5.192a6.514,6.514,0,0,1-1.087,3.886,3.95,3.95,0,0,0-.732,2.387c.167,1.885,1.412,2.875,7.75,2.875,6.3,0,7.587-1.034,7.753-2.94a3.91,3.91,0,0,0-.735-2.322,6.514,6.514,0,0,1-1.087-3.886C339.178,72.236,336.742,69.5,333.247,69.5Z" transform="translate(-324 -68)" fill="#fff" fill-rule="evenodd"/>
</svg>
