<svg xmlns="http://www.w3.org/2000/svg" width="32" height="32" viewBox="0 0 32 32">
  <path id="Fill_190" data-name="Fill 190" d="M6,32V24.919A13.362,13.362,0,0,1,0,14,13.09,13.09,0,0,1,4.686,4.1,17.109,17.109,0,0,1,16,0,17.113,17.113,0,0,1,27.314,4.1,13.092,13.092,0,0,1,32,14a13.092,13.092,0,0,1-4.686,9.9A17.116,17.116,0,0,1,16,28a18.529,18.529,0,0,1-2.992-.253L6,32ZM16,2A15.169,15.169,0,0,0,6.1,5.514,11.134,11.134,0,0,0,2,14a10.652,10.652,0,0,0,1.634,5.622,12.957,12.957,0,0,0,4.341,4.2l-.063,4.638,4.708-2.829A16.252,16.252,0,0,0,16,26a15.168,15.168,0,0,0,9.9-3.514A11.13,11.13,0,0,0,30,14a11.134,11.134,0,0,0-4.1-8.486A15.168,15.168,0,0,0,16,2Zm8,14a2,2,0,1,1,2-2A2,2,0,0,1,24,16Zm-8,0a2,2,0,1,1,2-2A2,2,0,0,1,16,16ZM8,16a2,2,0,1,1,2-2A2,2,0,0,1,8,16Z" fill="#9499a2"/>
</svg>
