<svg xmlns="http://www.w3.org/2000/svg" width="19.527" height="16.009" viewBox="0 0 19.527 16.009">
  <g id="Group_930" data-name="Group 930" transform="translate(-5.475 -7.201)">
    <g id="Icon" transform="translate(6.275 8.067)">
      <path id="Path" d="M13.038,4.781V3.187A3.224,3.224,0,0,0,9.779,0H3.26A3.224,3.224,0,0,0,0,3.187V4.781" transform="translate(0 9.561)" fill="none" stroke="#2cbfde" stroke-linecap="round" stroke-linejoin="round" stroke-miterlimit="10" stroke-width="1.6"/>
      <ellipse id="Oval" cx="3.26" cy="3.187" rx="3.26" ry="3.187" transform="translate(3.26 0)" fill="none" stroke="#2cbfde" stroke-linecap="round" stroke-linejoin="round" stroke-miterlimit="10" stroke-width="1.6"/>
      <path id="Path-2" data-name="Path" d="M2.445,4.677V3.084A3.2,3.2,0,0,0,0,0" transform="translate(15.483 9.665)" fill="none" stroke="#2cbfde" stroke-linecap="round" stroke-linejoin="round" stroke-miterlimit="10" stroke-width="1.6"/>
      <path id="Path-3" data-name="Path" d="M0,0A3.2,3.2,0,0,1,2.451,3.088,3.2,3.2,0,0,1,0,6.175" transform="translate(12.223 0.104)" fill="none" stroke="#2cbfde" stroke-linecap="round" stroke-linejoin="round" stroke-miterlimit="10" stroke-width="1.6"/>
    </g>
  </g>
</svg>
