<svg xmlns="http://www.w3.org/2000/svg" width="32" height="32" viewBox="0 0 32 32">
  <path id="Fill_97" data-name="Fill 97" d="M26.811,32H5.156a4.069,4.069,0,0,1-4.125-4L1,17a5.006,5.006,0,0,1-1-3V10L5.813,0H26.154L32,10v4a4.215,4.215,0,0,1-1,3V28a3.879,3.879,0,0,1-1.24,2.829A4.262,4.262,0,0,1,26.811,32ZM3,26v2a2.108,2.108,0,0,0,2.153,2H26.811A2.156,2.156,0,0,0,29,28V26Zm0-8,0,6H29V18a4.3,4.3,0,0,1-.567.022c-.3,0-.657-.008-.946-.014H27.4C27.19,18,27.066,18,27,18c-1.844,0-2.565-.972-3.533-2.574A4.616,4.616,0,0,1,19.677,18a4.228,4.228,0,0,1-3.694-2.216A4.2,4.2,0,0,1,12.223,18a4.6,4.6,0,0,1-3.761-2.424A4.489,4.489,0,0,1,4.964,18ZM2,12v2a1.74,1.74,0,0,0,.933,1.533,4.076,4.076,0,0,0,2.062.5c1.5,0,3.027-1.025,3.027-2.03h.948a1.752,1.752,0,0,0,1.042,1.469A4.823,4.823,0,0,0,12.27,16a4.394,4.394,0,0,0,2.169-.622A1.823,1.823,0,0,0,15.5,14h.969a1.358,1.358,0,0,0,.465.917A4.155,4.155,0,0,0,19.667,16C21.287,16,23,14.972,23,14h.945a1.775,1.775,0,0,0,.929,1.392A3.984,3.984,0,0,0,27,16a4.179,4.179,0,0,0,2.016-.482A1.741,1.741,0,0,0,30,14V12ZM6.7,2,2.04,10H30.027L25.271,2H6.7Z" fill="#9499a2"/>
</svg>
