<svg xmlns="http://www.w3.org/2000/svg" width="32" height="32" viewBox="0 0 32 32">
  <path id="Fill_218" data-name="Fill 218" d="M27.817,32H3.974A3.98,3.98,0,0,1,0,28.023V4.165A4.28,4.28,0,0,1,1.177,1.259,3.876,3.876,0,0,1,4,0H28a4.018,4.018,0,0,1,4,4V28a3.866,3.866,0,0,1-1.268,2.823A4.311,4.311,0,0,1,27.817,32ZM4,2A2.176,2.176,0,0,0,1.987,4.165V28.023a1.99,1.99,0,0,0,1.987,1.989H27.817A2.186,2.186,0,0,0,30,28V4a2,2,0,0,0-2-2ZM24,22H8a1,1,0,1,1,0-2H24a1,1,0,1,1,0,2Zm0-6H8a1,1,0,0,1,0-2H24a1,1,0,1,1,0,2Zm0-6H8A1,1,0,0,1,8,8H24a1,1,0,1,1,0,2Z" fill="#9499a2"/>
</svg>
